<svg viewBox="0 0 500 500" xmlns="http://www.w3.org/2000/svg"><defs><clipPath id="a"><path d="M0 0h500v500H0Z"/></clipPath></defs><g clip-path="url(#a)"><g fill="#FFF"><path d="M181.24 445.625c2.7.2 5.2-1.9 5.62-4.82 0-1.05-.21-2.09-.63-2.92 -9.8-19.59-15.42-40.84-16.67-62.5 -.21-2.5-2.09-4.59-4.59-5 -46.041-4.17-90.21-20-128.13-46.25h-.21c-2.3-1.88-5.625-1.67-7.5.62 -.84.83-1.25 2.08-1.25 3.125v35.625c0 39.58 65.2 72.29 152.5 81.04l.83 1.06Z"/><path d="M37.08 231.04h-.21c-2.3-1.875-5.625-1.67-7.5.625 -.84.83-1.25 2.08-1.25 3.125v35.62c0 36.875 56.875 68.12 135.917 79.16 2.7.2 5.41-1.67 5.83-4.59 0-.21 0-.21 0-.21 2.29-20.625 8.33-40.44 18.125-58.52 1.25-2.71.2-5.84-2.3-7.09 -.625-.42-1.46-.625-2.09-.625 -58.958-5.42-114.8-21.875-147.5-48.34l.95.81Z"/><path d="M335.83 197.917h-.03c22.5 0 45 4.58 65.83 13.75 1.87.625 3.95.39 5.62-1.07 10-8.55 16.25-20.625 16.87-33.75v-36.03c0-2.92-2.53-5.21-5.23-5.21 -1.25-.21-2.5.2-3.34 1.04 -40.42 32.708-116.46 50-189.42 50 -73.125 0-149.09-17.5-189.44-50.417 -2.3-1.875-5.63-1.67-7.5.625 -.84.83-1.25 2.08-1.25 3.125v35.625c0 42.708 76.45 77.917 175 82.79 1.45 0 3.125-.84 4.16-1.88 31.45-38.13 78.54-60.21 128.084-60.21l.6 1.58Z"/><path d="M226.6 0C174.1 0 123.76 8.77 86.65 24.4 49.53 40.028 28.68 61.22 28.68 83.32c0 22.1 20.85 43.29 57.96 58.92 37.11 15.62 87.45 24.4 139.94 24.4 52.49 0 102.83-8.78 139.94-24.41s57.96-36.83 57.96-58.93c0-22.11-20.86-43.3-57.97-58.93C329.39 8.74 279.05-.04 226.56-.04Z"/><path d="M335.83 229.16c-74.8 0-135.417 60.62-135.417 135.41 0 74.58 60.62 135.41 135.417 135.41 74.58 0 135.41-60.84 135.41-135.42 -.21-74.8-60.84-135.438-135.42-135.438v.02Zm68.125 108.33l-60.42 80.625c-5.625 7.29-13.96 11.875-22.92 12.5 -.84 0-1.67 0-2.5 0 -8.34-.21-16.25-3.57-22.09-9.4l-31.25-31.25c-6.05-6.25-5.84-16.27.2-22.32 6.04-6.05 15.62-6.05 21.66 0l27.08 27.08c1.04 1.04 2.5 1.45 4.16 1.45 1.45-.21 2.7-1.05 3.75-2.09l56.66-75.84c5-7.09 14.79-8.36 21.875-3.36 6.875 5 8.125 14.79 3.125 21.87 -.21 0-.21 0-.21 0l.83.68Z"/></g></g></svg>